<?xml version="1.0" encoding="UTF-8"?>
<!DOCTYPE svg PUBLIC "-//W3C//DTD SVG 1.1//EN" "http://www.w3.org/Graphics/SVG/1.1/DTD/svg11.dtd">
<svg xmlns="http://www.w3.org/2000/svg" version="1.1" width="134px" height="32px" style="shape-rendering:geometricPrecision; text-rendering:geometricPrecision; image-rendering:optimizeQuality; fill-rule:evenodd; clip-rule:evenodd" xmlns:xlink="http://www.w3.org/1999/xlink">
<g><path style="opacity:0.975" fill="#8e6447" d="M 9.5,1.5 C 10.6935,1.97041 11.3601,2.97041 11.5,4.5C 11.1667,5.5 10.8333,6.5 10.5,7.5C 9.53443,5.60395 9.2011,3.60395 9.5,1.5 Z"/></g>
<g><path style="opacity:0.975" fill="#8e6447" d="M 13.5,1.5 C 14.6935,1.97041 15.3601,2.97041 15.5,4.5C 15.1667,5.5 14.8333,6.5 14.5,7.5C 13.5344,5.60395 13.2011,3.60395 13.5,1.5 Z"/></g>
<g><path style="opacity:0.975" fill="#8e6447" d="M 17.5,1.5 C 18.6935,1.97041 19.3601,2.97041 19.5,4.5C 19.1667,5.5 18.8333,6.5 18.5,7.5C 17.5344,5.60395 17.2011,3.60395 17.5,1.5 Z"/></g>
<g><path style="opacity:0.981" fill="#8d6346" d="M 2.5,9.5 C 11.1731,9.33358 19.8397,9.50025 28.5,10C 30.4782,12.4973 30.9782,15.3307 30,18.5C 27.1667,20 25,22.1667 23.5,25C 24.624,25.2492 25.624,25.7492 26.5,26.5C 18.5,27.8333 10.5,27.8333 2.5,26.5C 3.37598,25.7492 4.37598,25.2492 5.5,25C 4.29857,24.0975 3.46524,22.9308 3,21.5C 2.50115,17.5138 2.33449,13.5138 2.5,9.5 Z M 26.5,12.5 C 28.7652,13.9402 28.9319,15.6068 27,17.5C 26.5065,15.8659 26.3398,14.1992 26.5,12.5 Z"/></g>
<g><path style="opacity:0.687" fill="#8d6346" d="M 133.5,16.5 C 133.5,17.1667 133.5,17.8333 133.5,18.5C 131.858,20.0808 129.858,20.7475 127.5,20.5C 127.196,23.5219 126.696,26.5219 126,29.5C 125.282,30.4506 124.449,30.6172 123.5,30C 123.195,26.4573 123.195,22.9573 123.5,19.5C 120.063,21.0784 116.896,20.745 114,18.5C 113.692,19.3081 113.192,19.9747 112.5,20.5C 112.041,15.8511 110.708,11.5178 108.5,7.5C 103.417,5.64822 99.084,6.64822 95.5,10.5C 95.9767,11.4776 96.6433,12.3109 97.5,13C 101.25,13.2599 104.916,13.9266 108.5,15C 109.86,16.9376 109.527,18.6043 107.5,20C 103.638,20.9133 99.9717,20.5799 96.5,19C 98.5269,18.5022 100.527,18.6689 102.5,19.5C 104.441,19.1964 106.107,18.3631 107.5,17C 103.374,15.834 99.2075,14.6673 95,13.5C 93.0384,10.2252 93.8717,7.72522 97.5,6C 102.398,3.52367 106.898,4.02367 111,7.5C 113.531,4.67839 115.031,5.17839 115.5,9C 115.227,11.1509 114.561,13.1509 113.5,15C 114.448,15.4828 115.448,15.6495 116.5,15.5C 116.351,16.552 116.517,17.552 117,18.5C 118.378,16.7866 120.045,15.4533 122,14.5C 123.83,18.272 125.33,17.9387 126.5,13.5C 129.237,14.0694 130.737,15.736 131,18.5C 131.417,17.244 132.25,16.5774 133.5,16.5 Z M 128.5,16.5 C 129.773,17.0768 129.773,17.7435 128.5,18.5C 127.537,18.0302 127.537,17.3635 128.5,16.5 Z"/></g>
<g><path style="opacity:0.588" fill="#8c6346" d="M 52.5,5.5 C 54.8568,5.33669 57.1902,5.50335 59.5,6C 63.1081,7.9569 63.4414,10.4569 60.5,13.5C 54.738,15.9226 52.738,14.2559 54.5,8.5C 55.5896,9.39138 55.5896,10.3914 54.5,11.5C 56.2417,13.9734 58.075,13.9734 60,11.5C 60.6838,10.2161 60.5171,9.04946 59.5,8C 55.6462,6.49043 52.1462,7.32377 49,10.5C 47.3227,15.6545 49.1561,18.6545 54.5,19.5C 58.5859,17.5676 62.7526,15.9009 67,14.5C 67.9147,15.3279 68.5814,16.3279 69,17.5C 69.5013,13.4899 70.0013,9.48994 70.5,5.5C 71.5,5.5 72.5,5.5 73.5,5.5C 73.4826,10.2954 72.9826,14.962 72,19.5C 72.6667,18.8333 73.3333,18.1667 74,17.5C 74.3333,13.8333 74.6667,10.1667 75,6.5C 77.645,5.29163 78.8116,6.29163 78.5,9.5C 77.3165,12.8282 76.4832,16.1616 76,19.5C 77.5095,17.7923 79.0095,16.1256 80.5,14.5C 81.9705,15.3805 82.8038,16.7139 83,18.5C 84.7786,13.2318 86.4453,13.2318 88,18.5C 88.5354,16.7295 89.3687,16.3961 90.5,17.5C 89.7303,19.2718 88.3969,20.2718 86.5,20.5C 84.0488,20.3757 81.5488,20.0424 79,19.5C 78.1301,20.1079 77.6301,20.9412 77.5,22C 78.4589,24.1199 78.6256,26.2865 78,28.5C 76.9887,29.3366 75.8221,29.67 74.5,29.5C 74.665,26.1501 74.4983,22.8168 74,19.5C 73.3076,20.0253 72.8076,20.6919 72.5,21.5C 73.3928,24.0841 73.7261,26.7508 73.5,29.5C 72.1779,29.67 71.0113,29.3366 70,28.5C 69.8214,25.4465 69.3214,22.4465 68.5,19.5C 66.9291,20.3094 65.2624,20.6427 63.5,20.5C 63.6495,19.448 63.4828,18.448 63,17.5C 57.3176,21.7925 51.9842,21.4592 47,16.5C 46.1757,11.4818 48.0091,7.81517 52.5,5.5 Z"/></g>
</svg>
