<svg width="16" height="16" viewBox="0 0 16 16" fill="none" xmlns="http://www.w3.org/2000/svg">
<path fill-rule="evenodd" clip-rule="evenodd" d="M13.7777 6.60303H1.89502C1.61902 6.60303 1.39502 6.37903 1.39502 6.10303C1.39502 5.82703 1.61902 5.60303 1.89502 5.60303H13.7777C14.0537 5.60303 14.2777 5.82703 14.2777 6.10303C14.2777 6.37903 14.0537 6.60303 13.7777 6.60303Z" fill="#4F5665"/>
<path fill-rule="evenodd" clip-rule="evenodd" d="M10.801 9.20654C10.525 9.20654 10.2983 8.98254 10.2983 8.70654C10.2983 8.43054 10.519 8.20654 10.795 8.20654H10.801C11.077 8.20654 11.301 8.43054 11.301 8.70654C11.301 8.98254 11.077 9.20654 10.801 9.20654Z" fill="#4F5665"/>
<path fill-rule="evenodd" clip-rule="evenodd" d="M7.84251 9.20654C7.56651 9.20654 7.33984 8.98254 7.33984 8.70654C7.33984 8.43054 7.56051 8.20654 7.83651 8.20654H7.84251C8.11851 8.20654 8.34251 8.43054 8.34251 8.70654C8.34251 8.98254 8.11851 9.20654 7.84251 9.20654Z" fill="#4F5665"/>
<path fill-rule="evenodd" clip-rule="evenodd" d="M4.87833 9.20654C4.60233 9.20654 4.375 8.98254 4.375 8.70654C4.375 8.43054 4.59633 8.20654 4.87233 8.20654H4.87833C5.15433 8.20654 5.37833 8.43054 5.37833 8.70654C5.37833 8.98254 5.15433 9.20654 4.87833 9.20654Z" fill="#4F5665"/>
<path fill-rule="evenodd" clip-rule="evenodd" d="M10.801 11.7976C10.525 11.7976 10.2983 11.5736 10.2983 11.2976C10.2983 11.0216 10.519 10.7976 10.795 10.7976H10.801C11.077 10.7976 11.301 11.0216 11.301 11.2976C11.301 11.5736 11.077 11.7976 10.801 11.7976Z" fill="#4F5665"/>
<path fill-rule="evenodd" clip-rule="evenodd" d="M7.84251 11.7976C7.56651 11.7976 7.33984 11.5736 7.33984 11.2976C7.33984 11.0216 7.56051 10.7976 7.83651 10.7976H7.84251C8.11851 10.7976 8.34251 11.0216 8.34251 11.2976C8.34251 11.5736 8.11851 11.7976 7.84251 11.7976Z" fill="#4F5665"/>
<path fill-rule="evenodd" clip-rule="evenodd" d="M4.87833 11.7976C4.60233 11.7976 4.375 11.5736 4.375 11.2976C4.375 11.0216 4.59633 10.7976 4.87233 10.7976H4.87833C5.15433 10.7976 5.37833 11.0216 5.37833 11.2976C5.37833 11.5736 5.15433 11.7976 4.87833 11.7976Z" fill="#4F5665"/>
<path fill-rule="evenodd" clip-rule="evenodd" d="M10.5293 3.86075C10.2533 3.86075 10.0293 3.63675 10.0293 3.36075V1.16675C10.0293 0.890748 10.2533 0.666748 10.5293 0.666748C10.8053 0.666748 11.0293 0.890748 11.0293 1.16675V3.36075C11.0293 3.63675 10.8053 3.86075 10.5293 3.86075Z" fill="#4F5665"/>
<path fill-rule="evenodd" clip-rule="evenodd" d="M5.14355 3.86075C4.86755 3.86075 4.64355 3.63675 4.64355 3.36075V1.16675C4.64355 0.890748 4.86755 0.666748 5.14355 0.666748C5.41955 0.666748 5.64355 0.890748 5.64355 1.16675V3.36075C5.64355 3.63675 5.41955 3.86075 5.14355 3.86075Z" fill="#4F5665"/>
<mask id="mask0_39_739" style="mask-type:luminance" maskUnits="userSpaceOnUse" x="1" y="1" width="14" height="14">
<path fill-rule="evenodd" clip-rule="evenodd" d="M1.3335 1.71948H14.3335V15.0001H1.3335V1.71948Z" fill="white"/>
</mask>
<g mask="url(#mask0_39_739)">
<path fill-rule="evenodd" clip-rule="evenodd" d="M5.01416 2.71948C3.2855 2.71948 2.3335 3.64148 2.3335 5.31548V11.3481C2.3335 13.0588 3.2855 14.0001 5.01416 14.0001H10.6528C12.3815 14.0001 13.3335 13.0761 13.3335 11.3988V5.31548C13.3362 4.49215 13.1148 3.85215 12.6755 3.41215C12.2235 2.95882 11.5268 2.71948 10.6588 2.71948H5.01416ZM10.6528 15.0001H5.01416C2.74416 15.0001 1.3335 13.6008 1.3335 11.3481V5.31548C1.3335 3.09682 2.74416 1.71948 5.01416 1.71948H10.6588C11.7982 1.71948 12.7402 2.06082 13.3835 2.70548C14.0082 3.33282 14.3368 4.23482 14.3335 5.31682V11.3988C14.3335 13.6201 12.9228 15.0001 10.6528 15.0001Z" fill="#4F5665"/>
</g>
</svg>
