<svg width="134" height="32" viewBox="0 0 134 32" fill="none" xmlns="http://www.w3.org/2000/svg">
<path d="M26 10H4C3.73478 10 3.48043 10.1054 3.29289 10.2929C3.10536 10.4804 3 10.7348 3 11V17C3.00299 18.7025 3.36708 20.385 4.06822 21.9364C4.76937 23.4878 5.79163 24.8728 7.0675 26H4C3.73478 26 3.48043 26.1054 3.29289 26.2929C3.10536 26.4804 3 26.7348 3 27C3 27.2652 3.10536 27.5196 3.29289 27.7071C3.48043 27.8946 3.73478 28 4 28H26C26.2652 28 26.5196 27.8946 26.7071 27.7071C26.8946 27.5196 27 27.2652 27 27C27 26.7348 26.8946 26.4804 26.7071 26.2929C26.5196 26.1054 26.2652 26 26 26H22.9325C24.464 24.6426 25.6254 22.9182 26.3075 20.9888C27.5776 20.9105 28.7701 20.3509 29.642 19.424C30.5139 18.497 30.9995 17.2725 31 16V15C31 13.6739 30.4732 12.4021 29.5355 11.4645C28.5979 10.5268 27.3261 10 26 10ZM29 16C28.9996 16.647 28.79 17.2765 28.4025 17.7946C28.015 18.3127 27.4705 18.6917 26.85 18.875C26.9491 18.2549 26.9993 17.628 27 17V12.1725C27.5848 12.3792 28.0911 12.7621 28.4492 13.2685C28.8074 13.7749 28.9998 14.3798 29 15V16ZM14 7V3C14 2.73478 14.1054 2.48043 14.2929 2.29289C14.4804 2.10536 14.7348 2 15 2C15.2652 2 15.5196 2.10536 15.7071 2.29289C15.8946 2.48043 16 2.73478 16 3V7C16 7.26522 15.8946 7.51957 15.7071 7.70711C15.5196 7.89464 15.2652 8 15 8C14.7348 8 14.4804 7.89464 14.2929 7.70711C14.1054 7.51957 14 7.26522 14 7ZM18 7V3C18 2.73478 18.1054 2.48043 18.2929 2.29289C18.4804 2.10536 18.7348 2 19 2C19.2652 2 19.5196 2.10536 19.7071 2.29289C19.8946 2.48043 20 2.73478 20 3V7C20 7.26522 19.8946 7.51957 19.7071 7.70711C19.5196 7.89464 19.2652 8 19 8C18.7348 8 18.4804 7.89464 18.2929 7.70711C18.1054 7.51957 18 7.26522 18 7ZM10 7V3C10 2.73478 10.1054 2.48043 10.2929 2.29289C10.4804 2.10536 10.7348 2 11 2C11.2652 2 11.5196 2.10536 11.7071 2.29289C11.8946 2.48043 12 2.73478 12 3V7C12 7.26522 11.8946 7.51957 11.7071 7.70711C11.5196 7.89464 11.2652 8 11 8C10.7348 8 10.4804 7.89464 10.2929 7.70711C10.1054 7.51957 10 7.26522 10 7Z" fill="#8E6447"/>
<path d="M63.3477 16.877C63.0417 17.3717 62.6283 17.8633 62.1074 18.3516C61.5866 18.8333 60.9909 19.2695 60.3203 19.6602C59.6562 20.0443 58.9303 20.3535 58.1426 20.5879C57.3548 20.8288 56.541 20.9492 55.7012 20.9492C55.0436 20.9492 54.3861 20.8906 53.7285 20.7734C53.0775 20.6562 52.4492 20.4772 51.8438 20.2363C51.2448 19.9954 50.6849 19.6927 50.1641 19.3281C49.6497 18.957 49.2005 18.5208 48.8164 18.0195C48.4323 17.5182 48.1296 16.9486 47.9082 16.3105C47.6934 15.6725 47.5859 14.9629 47.5859 14.1816C47.5859 13.4199 47.6966 12.6973 47.918 12.0137C48.1458 11.3301 48.4616 10.6986 48.8652 10.1191C49.2689 9.5332 49.7474 9.00586 50.3008 8.53711C50.8542 8.06836 51.4596 7.67122 52.1172 7.3457C52.7747 7.01367 53.4681 6.75977 54.1973 6.58398C54.9264 6.4082 55.6719 6.32031 56.4336 6.32031C57.2734 6.32031 58.0612 6.42122 58.7969 6.62305C59.5391 6.81836 60.1868 7.09831 60.7402 7.46289C61.2936 7.82096 61.7298 8.25391 62.0488 8.76172C62.3743 9.26302 62.5371 9.82292 62.5371 10.4414C62.5371 11.0143 62.4036 11.5612 62.1367 12.082C61.8698 12.5964 61.502 13.0488 61.0332 13.4395C60.571 13.8301 60.0273 14.1393 59.4023 14.3672C58.7839 14.5951 58.123 14.709 57.4199 14.709C56.8535 14.709 56.3522 14.6406 55.916 14.5039C55.4798 14.3607 55.1152 14.1654 54.8223 13.918C54.5293 13.6706 54.3079 13.3809 54.1582 13.0488C54.0085 12.7168 53.9336 12.3587 53.9336 11.9746C53.9336 11.6556 53.9824 11.3659 54.0801 11.1055C54.1842 10.8385 54.2949 10.6107 54.4121 10.4219C54.5358 10.2331 54.6497 10.0866 54.7539 9.98242C54.8646 9.87174 54.9264 9.8099 54.9395 9.79688C54.972 9.76432 55.0078 9.74479 55.0469 9.73828C55.0924 9.72526 55.1348 9.71875 55.1738 9.71875C55.278 9.71875 55.3659 9.7513 55.4375 9.81641C55.5091 9.88151 55.5449 9.96615 55.5449 10.0703C55.5449 10.1875 55.5026 10.2852 55.418 10.3633C55.4049 10.3698 55.3594 10.4154 55.2812 10.5C55.2031 10.5781 55.1185 10.6888 55.0273 10.832C54.9362 10.9688 54.8516 11.1348 54.7734 11.3301C54.7018 11.5254 54.666 11.7402 54.666 11.9746C54.666 12.3457 54.7474 12.6582 54.9102 12.9121C55.0794 13.166 55.2975 13.3743 55.5645 13.5371C55.8314 13.6934 56.1276 13.8073 56.4531 13.8789C56.7786 13.944 57.1042 13.9766 57.4297 13.9766C58.0352 13.9766 58.6016 13.8789 59.1289 13.6836C59.6628 13.4883 60.1283 13.2279 60.5254 12.9023C60.9225 12.5768 61.235 12.2025 61.4629 11.7793C61.6908 11.3561 61.8047 10.9134 61.8047 10.4512C61.8047 9.94336 61.6615 9.48112 61.375 9.06445C61.0885 8.64128 60.7012 8.2832 60.2129 7.99023C59.7246 7.69076 59.1517 7.45964 58.4941 7.29688C57.8431 7.13411 57.1465 7.05273 56.4043 7.05273C55.8444 7.05273 55.2552 7.12109 54.6367 7.25781C54.0247 7.38802 53.4193 7.58659 52.8203 7.85352C52.2214 8.12044 51.6484 8.45247 51.1016 8.84961C50.5612 9.24674 50.0859 9.71224 49.6758 10.2461C49.2656 10.7734 48.9368 11.3659 48.6895 12.0234C48.4486 12.681 48.3281 13.4004 48.3281 14.1816C48.3281 14.8913 48.4258 15.5326 48.6211 16.1055C48.8229 16.6784 49.0996 17.1895 49.4512 17.6387C49.8027 18.0814 50.2129 18.4655 50.6816 18.791C51.1569 19.1165 51.6647 19.3867 52.2051 19.6016C52.752 19.8099 53.3216 19.9661 53.9141 20.0703C54.5065 20.168 55.0957 20.2168 55.6816 20.2168C56.4629 20.2168 57.2148 20.1094 57.9375 19.8945C58.6602 19.6732 59.3275 19.3867 59.9395 19.0352C60.5579 18.6771 61.1048 18.2767 61.5801 17.834C62.0553 17.3913 62.4329 16.9453 62.7129 16.4961C62.7454 16.4375 62.791 16.3952 62.8496 16.3691C62.9082 16.3366 62.9701 16.3203 63.0352 16.3203C63.1458 16.3203 63.2337 16.3594 63.2988 16.4375C63.3639 16.5091 63.3965 16.5905 63.3965 16.6816C63.3965 16.7142 63.3932 16.7467 63.3867 16.7793C63.3802 16.8118 63.3672 16.8444 63.3477 16.877ZM68.8652 19.4258C68.7025 19.4258 68.5592 19.4128 68.4355 19.3867C68.3379 19.582 68.2207 19.7643 68.084 19.9336C67.9473 20.0964 67.7878 20.2396 67.6055 20.3633C67.4297 20.487 67.2311 20.5846 67.0098 20.6562C66.7884 20.7279 66.5475 20.7637 66.2871 20.7637C65.9811 20.7637 65.7012 20.7083 65.4473 20.5977C65.1934 20.4935 64.972 20.347 64.7832 20.1582C64.5944 19.9629 64.4479 19.7318 64.3438 19.4648C64.2396 19.1914 64.1875 18.8919 64.1875 18.5664C64.1875 18.1497 64.2624 17.7884 64.4121 17.4824C64.5618 17.1699 64.7344 16.9128 64.9297 16.7109C65.125 16.5026 65.3203 16.3496 65.5156 16.252C65.7109 16.1478 65.8574 16.0957 65.9551 16.0957C66.0658 16.0957 66.1471 16.125 66.1992 16.1836C66.2578 16.2422 66.2871 16.3203 66.2871 16.418C66.2871 16.5286 66.2513 16.6133 66.1797 16.6719C66.1146 16.724 66.0299 16.776 65.9258 16.8281C65.8216 16.8802 65.7109 16.9551 65.5938 17.0527C65.4766 17.1439 65.3659 17.2611 65.2617 17.4043C65.1641 17.5475 65.0827 17.7168 65.0176 17.9121C64.9525 18.1074 64.9199 18.3255 64.9199 18.5664C64.9199 18.7812 64.9525 18.9831 65.0176 19.1719C65.0827 19.3542 65.1771 19.5137 65.3008 19.6504C65.4245 19.7806 65.571 19.8848 65.7402 19.9629C65.9095 20.0345 66.0983 20.0703 66.3066 20.0703C66.6777 20.0703 66.9837 19.9857 67.2246 19.8164C67.472 19.6406 67.6608 19.4193 67.791 19.1523C67.4069 18.9505 67.0911 18.6641 66.8438 18.293C66.5964 17.9219 66.4727 17.5052 66.4727 17.043C66.4727 16.6719 66.5605 16.3691 66.7363 16.1348C66.9186 15.9004 67.1562 15.7832 67.4492 15.7832C67.625 15.7832 67.791 15.8255 67.9473 15.9102C68.1035 15.9948 68.2402 16.1283 68.3574 16.3105C68.4811 16.4928 68.5788 16.7272 68.6504 17.0137C68.722 17.3001 68.7578 17.6419 68.7578 18.0391C68.7578 18.2474 68.7318 18.4655 68.6797 18.6934C68.7188 18.6999 68.7578 18.7031 68.7969 18.7031C68.8359 18.7031 68.8783 18.7031 68.9238 18.7031C69.1452 18.7031 69.3438 18.6771 69.5195 18.625C69.6953 18.5729 69.8548 18.4948 69.998 18.3906C70.1413 18.2865 70.2682 18.153 70.3789 17.9902C70.4961 17.8275 70.6068 17.6387 70.7109 17.4238C70.7305 17.3848 70.7728 17.349 70.8379 17.3164C70.903 17.2773 70.9681 17.2578 71.0332 17.2578C71.1178 17.2578 71.196 17.2936 71.2676 17.3652C71.3457 17.4303 71.3848 17.5182 71.3848 17.6289C71.3848 17.681 71.3717 17.7396 71.3457 17.8047C71.3197 17.8633 71.2936 17.9186 71.2676 17.9707C71.1569 18.166 71.0267 18.3548 70.877 18.5371C70.7337 18.7129 70.5612 18.8691 70.3594 19.0059C70.1641 19.1361 69.9427 19.2402 69.6953 19.3184C69.4479 19.3965 69.1712 19.4323 68.8652 19.4258ZM67.1953 16.9648C67.1953 17.0885 67.2116 17.2188 67.2441 17.3555C67.2767 17.4922 67.3255 17.6289 67.3906 17.7656C67.4622 17.8958 67.5469 18.0228 67.6445 18.1465C67.7487 18.2637 67.8691 18.3646 68.0059 18.4492C68.0254 18.3125 68.0352 18.179 68.0352 18.0488C68.0352 17.873 68.0221 17.694 67.9961 17.5117C67.9701 17.3294 67.931 17.1634 67.8789 17.0137C67.8333 16.8574 67.7747 16.7337 67.7031 16.6426C67.6315 16.5449 67.5469 16.4961 67.4492 16.4961C67.4102 16.4961 67.3581 16.5254 67.293 16.584C67.2279 16.6426 67.1953 16.7695 67.1953 16.9648ZM71.4531 20.9785C71.9349 20.7637 72.3711 20.5163 72.7617 20.2363C73.1589 19.9564 73.5104 19.6634 73.8164 19.3574C74.1289 19.0449 74.3926 18.7292 74.6074 18.4102C74.8288 18.0846 75.0046 17.7754 75.1348 17.4824C75.1934 17.3392 75.304 17.2676 75.4668 17.2676C75.5775 17.2676 75.6654 17.3066 75.7305 17.3848C75.8021 17.4564 75.8379 17.5378 75.8379 17.6289C75.8379 17.681 75.8281 17.7298 75.8086 17.7754C75.6654 18.0944 75.4831 18.4264 75.2617 18.7715C75.0404 19.11 74.7702 19.4453 74.4512 19.7773C74.1387 20.1029 73.7708 20.4186 73.3477 20.7246C72.9245 21.0306 72.4395 21.3105 71.8926 21.5645C72.2441 21.929 72.5501 22.3327 72.8105 22.7754C73.071 23.2246 73.2858 23.6901 73.4551 24.1719C73.6309 24.6536 73.7611 25.1387 73.8457 25.627C73.9368 26.1217 73.9824 26.5938 73.9824 27.043C73.9824 27.4531 73.9434 27.8372 73.8652 28.1953C73.7936 28.5599 73.6829 28.8757 73.5332 29.1426C73.39 29.4095 73.2142 29.6178 73.0059 29.7676C72.7975 29.9238 72.5599 30.002 72.293 30.002C71.9023 30.002 71.5996 29.8555 71.3848 29.5625C71.1699 29.276 71.0104 28.8757 70.9062 28.3613C70.8086 27.8535 70.75 27.2513 70.7305 26.5547C70.7174 25.8646 70.7109 25.1126 70.7109 24.2988C70.7109 23.8952 70.7109 23.4232 70.7109 22.8828C70.7109 22.349 70.7109 21.7728 70.7109 21.1543C70.7174 20.5423 70.7207 19.901 70.7207 19.2305C70.7272 18.5534 70.7337 17.8763 70.7402 17.1992C70.7467 16.5221 70.7533 15.8581 70.7598 15.207C70.7663 14.5495 70.776 13.9277 70.7891 13.3418C70.8086 12.222 70.8477 11.2227 70.9062 10.3438C70.9648 9.46484 71.0592 8.72266 71.1895 8.11719C71.3197 7.51172 71.4954 7.05273 71.7168 6.74023C71.9447 6.42122 72.2311 6.26172 72.5762 6.26172C72.8496 6.26172 73.0807 6.33984 73.2695 6.49609C73.4583 6.64583 73.6113 6.85091 73.7285 7.11133C73.8457 7.36523 73.9303 7.66471 73.9824 8.00977C74.0345 8.35482 74.0605 8.71615 74.0605 9.09375C74.0605 9.88802 73.9922 10.6562 73.8555 11.3984C73.7188 12.1406 73.5332 12.86 73.2988 13.5566C73.0645 14.2533 72.7878 14.9336 72.4688 15.5977C72.1562 16.2617 71.821 16.916 71.4629 17.5605C71.4629 17.8275 71.4629 18.1172 71.4629 18.4297C71.4629 18.7357 71.4629 19.0449 71.4629 19.3574C71.4629 19.6634 71.4596 19.9596 71.4531 20.2461C71.4531 20.526 71.4531 20.7702 71.4531 20.9785ZM71.4824 16.0566C71.7493 15.5553 71.9935 15.028 72.2148 14.4746C72.4427 13.9147 72.638 13.3385 72.8008 12.7461C72.9635 12.1536 73.0905 11.5482 73.1816 10.9297C73.2728 10.3112 73.3184 9.68945 73.3184 9.06445C73.3184 8.75195 73.3021 8.46875 73.2695 8.21484C73.2435 7.96094 73.1979 7.74609 73.1328 7.57031C73.0742 7.38802 72.9961 7.24805 72.8984 7.15039C72.8073 7.04622 72.6999 6.99414 72.5762 6.99414C72.446 6.99414 72.332 7.07227 72.2344 7.22852C72.1367 7.38477 72.0521 7.5931 71.9805 7.85352C71.9089 8.11393 71.847 8.41341 71.7949 8.75195C71.7493 9.09049 71.7103 9.44531 71.6777 9.81641C71.6452 10.181 71.6191 10.5488 71.5996 10.9199C71.5801 11.2845 71.5638 11.6296 71.5508 11.9551C71.5443 12.2741 71.5378 12.5573 71.5312 12.8047C71.5312 13.0521 71.5312 13.2376 71.5312 13.3613C71.5247 13.6217 71.5182 13.8529 71.5117 14.0547C71.5117 14.2565 71.5085 14.4551 71.502 14.6504C71.4954 14.8457 71.4889 15.054 71.4824 15.2754C71.4824 15.4967 71.4824 15.7572 71.4824 16.0566ZM71.4531 22.1797C71.4531 22.5898 71.4499 22.9707 71.4434 23.3223C71.4434 23.6803 71.4434 24.0059 71.4434 24.2988C71.4434 24.9043 71.4466 25.5033 71.4531 26.0957C71.4596 26.6882 71.4889 27.2188 71.541 27.6875C71.5996 28.1628 71.6842 28.5436 71.7949 28.8301C71.9121 29.123 72.0781 29.2695 72.293 29.2695C72.4883 29.2695 72.6478 29.1816 72.7715 29.0059C72.8952 28.8301 72.9896 28.6217 73.0547 28.3809C73.1263 28.14 73.1751 27.8926 73.2012 27.6387C73.2272 27.3913 73.2402 27.1895 73.2402 27.0332C73.2402 26.6361 73.2012 26.2194 73.123 25.7832C73.0514 25.347 72.9375 24.9141 72.7812 24.4844C72.6315 24.0612 72.446 23.651 72.2246 23.2539C72.0033 22.8568 71.7461 22.4987 71.4531 22.1797ZM75.9062 20.9785C76.388 20.7637 76.8242 20.5163 77.2148 20.2363C77.612 19.9564 77.9635 19.6634 78.2695 19.3574C78.582 19.0449 78.8457 18.7292 79.0605 18.4102C79.2819 18.0846 79.4577 17.7754 79.5879 17.4824C79.6465 17.3392 79.7572 17.2676 79.9199 17.2676C80.0306 17.2676 80.1185 17.3066 80.1836 17.3848C80.2552 17.4564 80.291 17.5378 80.291 17.6289C80.291 17.681 80.2812 17.7298 80.2617 17.7754C80.1185 18.0944 79.9362 18.4264 79.7148 18.7715C79.4935 19.11 79.2233 19.4453 78.9043 19.7773C78.5918 20.1029 78.224 20.4186 77.8008 20.7246C77.3776 21.0306 76.8926 21.3105 76.3457 21.5645C76.6973 21.929 77.0033 22.3327 77.2637 22.7754C77.5241 23.2246 77.7389 23.6901 77.9082 24.1719C78.084 24.6536 78.2142 25.1387 78.2988 25.627C78.39 26.1217 78.4355 26.5938 78.4355 27.043C78.4355 27.4531 78.3965 27.8372 78.3184 28.1953C78.2467 28.5599 78.1361 28.8757 77.9863 29.1426C77.8431 29.4095 77.6673 29.6178 77.459 29.7676C77.2507 29.9238 77.013 30.002 76.7461 30.002C76.3555 30.002 76.0527 29.8555 75.8379 29.5625C75.623 29.276 75.4635 28.8757 75.3594 28.3613C75.2617 27.8535 75.2031 27.2513 75.1836 26.5547C75.1706 25.8646 75.1641 25.1126 75.1641 24.2988C75.1641 23.8952 75.1641 23.4232 75.1641 22.8828C75.1641 22.349 75.1641 21.7728 75.1641 21.1543C75.1706 20.5423 75.1738 19.901 75.1738 19.2305C75.1803 18.5534 75.1868 17.8763 75.1934 17.1992C75.1999 16.5221 75.2064 15.8581 75.2129 15.207C75.2194 14.5495 75.2292 13.9277 75.2422 13.3418C75.2617 12.222 75.3008 11.2227 75.3594 10.3438C75.418 9.46484 75.5124 8.72266 75.6426 8.11719C75.7728 7.51172 75.9486 7.05273 76.1699 6.74023C76.3978 6.42122 76.6842 6.26172 77.0293 6.26172C77.3027 6.26172 77.5339 6.33984 77.7227 6.49609C77.9115 6.64583 78.0645 6.85091 78.1816 7.11133C78.2988 7.36523 78.3835 7.66471 78.4355 8.00977C78.4876 8.35482 78.5137 8.71615 78.5137 9.09375C78.5137 9.88802 78.4453 10.6562 78.3086 11.3984C78.1719 12.1406 77.9863 12.86 77.752 13.5566C77.5176 14.2533 77.2409 14.9336 76.9219 15.5977C76.6094 16.2617 76.2741 16.916 75.916 17.5605C75.916 17.8275 75.916 18.1172 75.916 18.4297C75.916 18.7357 75.916 19.0449 75.916 19.3574C75.916 19.6634 75.9128 19.9596 75.9062 20.2461C75.9062 20.526 75.9062 20.7702 75.9062 20.9785ZM75.9355 16.0566C76.2025 15.5553 76.4466 15.028 76.668 14.4746C76.8958 13.9147 77.0911 13.3385 77.2539 12.7461C77.4167 12.1536 77.5436 11.5482 77.6348 10.9297C77.7259 10.3112 77.7715 9.68945 77.7715 9.06445C77.7715 8.75195 77.7552 8.46875 77.7227 8.21484C77.6966 7.96094 77.651 7.74609 77.5859 7.57031C77.5273 7.38802 77.4492 7.24805 77.3516 7.15039C77.2604 7.04622 77.153 6.99414 77.0293 6.99414C76.8991 6.99414 76.7852 7.07227 76.6875 7.22852C76.5898 7.38477 76.5052 7.5931 76.4336 7.85352C76.362 8.11393 76.3001 8.41341 76.248 8.75195C76.2025 9.09049 76.1634 9.44531 76.1309 9.81641C76.0983 10.181 76.0723 10.5488 76.0527 10.9199C76.0332 11.2845 76.0169 11.6296 76.0039 11.9551C75.9974 12.2741 75.9909 12.5573 75.9844 12.8047C75.9844 13.0521 75.9844 13.2376 75.9844 13.3613C75.9779 13.6217 75.9714 13.8529 75.9648 14.0547C75.9648 14.2565 75.9616 14.4551 75.9551 14.6504C75.9486 14.8457 75.9421 15.054 75.9355 15.2754C75.9355 15.4967 75.9355 15.7572 75.9355 16.0566ZM75.9062 22.1797C75.9062 22.5898 75.903 22.9707 75.8965 23.3223C75.8965 23.6803 75.8965 24.0059 75.8965 24.2988C75.8965 24.9043 75.8997 25.5033 75.9062 26.0957C75.9128 26.6882 75.9421 27.2188 75.9941 27.6875C76.0527 28.1628 76.1374 28.5436 76.248 28.8301C76.3652 29.123 76.5312 29.2695 76.7461 29.2695C76.9414 29.2695 77.1009 29.1816 77.2246 29.0059C77.3483 28.8301 77.4427 28.6217 77.5078 28.3809C77.5794 28.14 77.6283 27.8926 77.6543 27.6387C77.6803 27.3913 77.6934 27.1895 77.6934 27.0332C77.6934 26.6361 77.6543 26.2194 77.5762 25.7832C77.5046 25.347 77.3906 24.9141 77.2344 24.4844C77.0846 24.0612 76.8991 23.651 76.6777 23.2539C76.4564 22.8568 76.1992 22.4987 75.9062 22.1797ZM80.7695 19.4258C80.9062 19.6146 81.082 19.7676 81.2969 19.8848C81.5117 19.9954 81.7754 20.0508 82.0879 20.0508C82.4069 20.0508 82.6966 19.9759 82.957 19.8262C83.2174 19.6699 83.4551 19.4681 83.6699 19.2207C83.8848 18.9733 84.0768 18.6966 84.2461 18.3906C84.4154 18.0846 84.5684 17.7786 84.7051 17.4727C84.7376 17.401 84.7832 17.349 84.8418 17.3164C84.9004 17.2773 84.9655 17.2578 85.0371 17.2578C85.1478 17.2578 85.2357 17.2969 85.3008 17.375C85.3724 17.4531 85.4082 17.5378 85.4082 17.6289C85.4082 17.6615 85.4049 17.6908 85.3984 17.7168C85.3919 17.7363 85.3822 17.7591 85.3691 17.7852C84.9199 18.7747 84.4284 19.5202 83.8945 20.0215C83.3672 20.5228 82.7682 20.7799 82.0977 20.793C81.668 20.793 81.2969 20.7083 80.9844 20.5391C80.6719 20.3763 80.4147 20.1647 80.2129 19.9043C80.0111 19.6374 79.8613 19.3379 79.7637 19.0059C79.666 18.6738 79.6172 18.3418 79.6172 18.0098C79.6172 17.6777 79.6562 17.3717 79.7344 17.0918C79.819 16.8118 79.9362 16.5677 80.0859 16.3594C80.2422 16.151 80.4245 15.9883 80.6328 15.8711C80.8477 15.7539 81.082 15.6953 81.3359 15.6953C81.4857 15.6953 81.6322 15.7279 81.7754 15.793C81.9251 15.8516 82.0586 15.9395 82.1758 16.0566C82.293 16.1673 82.3874 16.304 82.459 16.4668C82.5306 16.6296 82.5664 16.8151 82.5664 17.0234C82.5664 17.2904 82.5208 17.541 82.4297 17.7754C82.3385 18.0098 82.2116 18.2279 82.0488 18.4297C81.8926 18.6315 81.7038 18.8171 81.4824 18.9863C81.2611 19.1556 81.0234 19.3021 80.7695 19.4258ZM80.4766 18.791C80.6784 18.7064 80.8607 18.599 81.0234 18.4688C81.1927 18.3385 81.3359 18.1953 81.4531 18.0391C81.5703 17.8828 81.6615 17.7201 81.7266 17.5508C81.7917 17.375 81.8242 17.1992 81.8242 17.0234C81.8242 16.8281 81.7754 16.6816 81.6777 16.584C81.5801 16.4798 81.4661 16.4277 81.3359 16.4277C81.1602 16.4277 81.0104 16.4766 80.8867 16.5742C80.763 16.6719 80.6621 16.7988 80.584 16.9551C80.5059 17.1113 80.4473 17.2871 80.4082 17.4824C80.3757 17.6712 80.3594 17.86 80.3594 18.0488C80.3594 18.166 80.3691 18.2897 80.3887 18.4199C80.4147 18.5501 80.444 18.6738 80.4766 18.791ZM85.8867 19.4258C86.0234 19.6146 86.1992 19.7676 86.4141 19.8848C86.6289 19.9954 86.8926 20.0508 87.2051 20.0508C87.5241 20.0508 87.8138 19.9759 88.0742 19.8262C88.3346 19.6699 88.5723 19.4681 88.7871 19.2207C89.002 18.9733 89.194 18.6966 89.3633 18.3906C89.5326 18.0846 89.6855 17.7786 89.8223 17.4727C89.8548 17.401 89.9004 17.349 89.959 17.3164C90.0176 17.2773 90.0827 17.2578 90.1543 17.2578C90.265 17.2578 90.3529 17.2969 90.418 17.375C90.4896 17.4531 90.5254 17.5378 90.5254 17.6289C90.5254 17.6615 90.5221 17.6908 90.5156 17.7168C90.5091 17.7363 90.4993 17.7591 90.4863 17.7852C90.0371 18.7747 89.5456 19.5202 89.0117 20.0215C88.4844 20.5228 87.8854 20.7799 87.2148 20.793C86.7852 20.793 86.4141 20.7083 86.1016 20.5391C85.7891 20.3763 85.5319 20.1647 85.3301 19.9043C85.1283 19.6374 84.9785 19.3379 84.8809 19.0059C84.7832 18.6738 84.7344 18.3418 84.7344 18.0098C84.7344 17.6777 84.7734 17.3717 84.8516 17.0918C84.9362 16.8118 85.0534 16.5677 85.2031 16.3594C85.3594 16.151 85.5417 15.9883 85.75 15.8711C85.9648 15.7539 86.1992 15.6953 86.4531 15.6953C86.6029 15.6953 86.7493 15.7279 86.8926 15.793C87.0423 15.8516 87.1758 15.9395 87.293 16.0566C87.4102 16.1673 87.5046 16.304 87.5762 16.4668C87.6478 16.6296 87.6836 16.8151 87.6836 17.0234C87.6836 17.2904 87.638 17.541 87.5469 17.7754C87.4557 18.0098 87.3288 18.2279 87.166 18.4297C87.0098 18.6315 86.821 18.8171 86.5996 18.9863C86.3783 19.1556 86.1406 19.3021 85.8867 19.4258ZM85.5938 18.791C85.7956 18.7064 85.9779 18.599 86.1406 18.4688C86.3099 18.3385 86.4531 18.1953 86.5703 18.0391C86.6875 17.8828 86.7786 17.7201 86.8438 17.5508C86.9089 17.375 86.9414 17.1992 86.9414 17.0234C86.9414 16.8281 86.8926 16.6816 86.7949 16.584C86.6973 16.4798 86.5833 16.4277 86.4531 16.4277C86.2773 16.4277 86.1276 16.4766 86.0039 16.5742C85.8802 16.6719 85.7793 16.7988 85.7012 16.9551C85.623 17.1113 85.5645 17.2871 85.5254 17.4824C85.4928 17.6712 85.4766 17.86 85.4766 18.0488C85.4766 18.166 85.4863 18.2897 85.5059 18.4199C85.5319 18.5501 85.5612 18.6738 85.5938 18.791ZM111.57 10.2461C111.551 10.3372 111.508 10.4089 111.443 10.4609C111.378 10.513 111.307 10.5391 111.229 10.5391C111.111 10.5391 111.017 10.5033 110.945 10.4316C110.874 10.3535 110.838 10.2656 110.838 10.168C110.838 10.0703 110.848 9.97591 110.867 9.88477C110.887 9.78711 110.896 9.69271 110.896 9.60156C110.896 9.1263 110.75 8.69987 110.457 8.32227C110.164 7.94466 109.747 7.62891 109.207 7.375C108.673 7.11458 108.022 6.91602 107.254 6.7793C106.486 6.64258 105.63 6.57422 104.686 6.57422C103.963 6.57422 103.234 6.62305 102.498 6.7207C101.769 6.81185 101.066 6.94857 100.389 7.13086C99.7181 7.30664 99.0898 7.53125 98.5039 7.80469C97.918 8.07161 97.4069 8.38411 96.9707 8.74219C96.541 9.09375 96.2025 9.48763 95.9551 9.92383C95.7077 10.3535 95.584 10.8255 95.584 11.3398C95.584 11.737 95.6686 12.0885 95.8379 12.3945C96.0137 12.694 96.2513 12.9577 96.5508 13.1855C96.8503 13.4069 97.2018 13.599 97.6055 13.7617C98.0156 13.918 98.4583 14.0514 98.9336 14.1621C99.4089 14.2663 99.9036 14.3542 100.418 14.4258C100.932 14.4909 101.45 14.5462 101.971 14.5918L103.475 14.7188C104.223 14.7839 104.894 14.8522 105.486 14.9238C106.079 14.9954 106.6 15.0866 107.049 15.1973C107.798 15.3861 108.351 15.6562 108.709 16.0078C109.067 16.3594 109.246 16.8281 109.246 17.4141C109.246 17.9805 109.09 18.4785 108.777 18.9082C108.465 19.3379 108.038 19.6992 107.498 19.9922C106.958 20.2852 106.326 20.5065 105.604 20.6562C104.881 20.806 104.106 20.8809 103.279 20.8809C102.381 20.8809 101.59 20.819 100.906 20.6953C100.229 20.5781 99.6595 20.4479 99.1973 20.3047C98.7415 20.1549 98.3932 20.0182 98.1523 19.8945C97.9115 19.7708 97.7812 19.7025 97.7617 19.6895C97.6445 19.6243 97.5859 19.5202 97.5859 19.377C97.5859 19.2663 97.625 19.1784 97.7031 19.1133C97.7812 19.0417 97.8659 19.0059 97.957 19.0059C98.0286 19.0059 98.0938 19.0254 98.1523 19.0645C98.1589 19.0645 98.2695 19.123 98.4844 19.2402C98.7057 19.3509 99.0312 19.4746 99.4609 19.6113C99.8971 19.748 100.434 19.8717 101.072 19.9824C101.71 20.0931 102.452 20.1484 103.299 20.1484C104.139 20.1484 104.881 20.0801 105.525 19.9434C106.17 19.8066 106.71 19.6178 107.146 19.377C107.589 19.1296 107.921 18.8431 108.143 18.5176C108.37 18.1855 108.484 17.8275 108.484 17.4434C108.484 17.2155 108.442 17.0202 108.357 16.8574C108.279 16.6882 108.169 16.5449 108.025 16.4277C107.882 16.304 107.71 16.1999 107.508 16.1152C107.312 16.0306 107.098 15.959 106.863 15.9004C106.616 15.8353 106.349 15.7799 106.062 15.7344C105.783 15.6888 105.493 15.6497 105.193 15.6172C104.894 15.5846 104.591 15.5553 104.285 15.5293C103.986 15.5033 103.689 15.4772 103.396 15.4512L101.893 15.3242C100.708 15.2266 99.6725 15.0768 98.7871 14.875C97.9082 14.6667 97.1758 14.403 96.5898 14.084C96.0039 13.7585 95.5645 13.3711 95.2715 12.9219C94.9785 12.4727 94.832 11.9486 94.832 11.3496C94.832 10.7376 94.9688 10.1777 95.2422 9.66992C95.5221 9.1556 95.8997 8.69336 96.375 8.2832C96.8568 7.87305 97.4167 7.51823 98.0547 7.21875C98.6992 6.91276 99.3861 6.65885 100.115 6.45703C100.844 6.25521 101.6 6.10547 102.381 6.00781C103.162 5.90365 103.93 5.85156 104.686 5.85156C105.63 5.85156 106.45 5.91016 107.146 6.02734C107.85 6.13802 108.449 6.28451 108.943 6.4668C109.445 6.64258 109.855 6.8444 110.174 7.07227C110.493 7.30013 110.75 7.52474 110.945 7.74609C111.408 8.28646 111.639 8.90169 111.639 9.5918C111.639 9.81966 111.616 10.0378 111.57 10.2461ZM112.732 19.6699C112.837 19.4486 112.957 19.2109 113.094 18.957C113.23 18.6966 113.377 18.4329 113.533 18.166C113.689 17.8926 113.855 17.6224 114.031 17.3555C114.207 17.0885 114.389 16.8379 114.578 16.6035C114.767 16.3757 114.956 16.2129 115.145 16.1152C115.34 16.0111 115.522 15.959 115.691 15.959C115.861 15.959 116.007 15.9948 116.131 16.0664C116.261 16.1315 116.365 16.2227 116.443 16.3398C116.528 16.457 116.59 16.5938 116.629 16.75C116.674 16.9062 116.697 17.0755 116.697 17.2578C116.697 17.4076 116.681 17.6094 116.648 17.8633C116.622 18.1107 116.609 18.3711 116.609 18.6445C116.609 18.8008 116.616 18.957 116.629 19.1133C116.648 19.263 116.678 19.3997 116.717 19.5234C116.762 19.6406 116.827 19.7383 116.912 19.8164C116.997 19.888 117.107 19.9238 117.244 19.9238C117.4 19.9238 117.557 19.8815 117.713 19.7969C117.869 19.7057 118.022 19.5885 118.172 19.4453C118.322 19.2956 118.465 19.1328 118.602 18.957C118.738 18.7747 118.862 18.5957 118.973 18.4199C119.083 18.2376 119.181 18.0651 119.266 17.9023C119.35 17.7331 119.419 17.5931 119.471 17.4824C119.536 17.3327 119.65 17.2578 119.812 17.2578C119.923 17.2578 120.011 17.2969 120.076 17.375C120.141 17.4531 120.174 17.5378 120.174 17.6289C120.174 17.681 120.164 17.7298 120.145 17.7754C120.118 17.8275 120.066 17.9349 119.988 18.0977C119.917 18.2604 119.816 18.4492 119.686 18.6641C119.562 18.8789 119.415 19.1035 119.246 19.3379C119.077 19.5723 118.888 19.7904 118.68 19.9922C118.478 20.1875 118.257 20.3503 118.016 20.4805C117.781 20.6042 117.534 20.666 117.273 20.666C116.974 20.666 116.733 20.6042 116.551 20.4805C116.368 20.3503 116.225 20.1875 116.121 19.9922C116.023 19.7969 115.955 19.5788 115.916 19.3379C115.883 19.097 115.867 18.8626 115.867 18.6348C115.867 18.5176 115.87 18.3939 115.877 18.2637C115.89 18.127 115.903 17.9935 115.916 17.8633C115.929 17.7331 115.939 17.6126 115.945 17.502C115.958 17.3848 115.965 17.2871 115.965 17.209C115.965 17.0072 115.936 16.8704 115.877 16.7988C115.825 16.7272 115.763 16.6914 115.691 16.6914C115.587 16.6914 115.467 16.7533 115.33 16.877C115.2 16.9941 115.06 17.1504 114.91 17.3457C114.767 17.541 114.62 17.7624 114.471 18.0098C114.327 18.2507 114.188 18.4915 114.051 18.7324C113.914 18.9733 113.79 19.2044 113.68 19.4258C113.569 19.6406 113.478 19.8197 113.406 19.9629C113.27 20.2363 113.13 20.4186 112.986 20.5098C112.85 20.6074 112.726 20.6562 112.615 20.6562C112.413 20.6562 112.257 20.5781 112.146 20.4219C112.042 20.2591 111.99 20.0638 111.99 19.8359V19.2207C111.99 17.9902 111.99 16.8184 111.99 15.7051C111.997 14.5853 112.013 13.5469 112.039 12.5898C112.072 11.6263 112.12 10.7572 112.186 9.98242C112.257 9.20117 112.361 8.53711 112.498 7.99023C112.635 7.43685 112.807 7.01042 113.016 6.71094C113.23 6.41146 113.497 6.26172 113.816 6.26172C114.09 6.26172 114.321 6.33659 114.51 6.48633C114.699 6.63607 114.852 6.84115 114.969 7.10156C115.086 7.35547 115.171 7.65495 115.223 8C115.275 8.33854 115.301 8.69661 115.301 9.07422C115.301 9.84245 115.229 10.5977 115.086 11.3398C114.949 12.0755 114.764 12.7949 114.529 13.498C114.295 14.2012 114.021 14.888 113.709 15.5586C113.396 16.2227 113.068 16.8704 112.723 17.502C112.723 17.6191 112.723 17.7591 112.723 17.9219C112.723 18.0846 112.723 18.2474 112.723 18.4102C112.723 18.5729 112.723 18.7259 112.723 18.8691C112.723 19.0124 112.723 19.1263 112.723 19.2109L112.732 19.6699ZM112.732 16.0664C113.006 15.4674 113.253 14.8848 113.475 14.3184C113.702 13.7454 113.895 13.1758 114.051 12.6094C114.214 12.043 114.34 11.4701 114.432 10.8906C114.523 10.3047 114.568 9.69596 114.568 9.06445C114.568 8.96029 114.562 8.79427 114.549 8.56641C114.542 8.33854 114.513 8.10742 114.461 7.87305C114.415 7.63867 114.34 7.43359 114.236 7.25781C114.139 7.08203 113.999 6.99414 113.816 6.99414C113.673 6.99414 113.549 7.0918 113.445 7.28711C113.341 7.47591 113.25 7.73633 113.172 8.06836C113.094 8.39388 113.029 8.77474 112.977 9.21094C112.924 9.64714 112.882 10.1094 112.85 10.5977C112.817 11.0859 112.791 11.5872 112.771 12.1016C112.758 12.6159 112.749 13.1172 112.742 13.6055C112.736 14.0872 112.732 14.5397 112.732 14.9629C112.732 15.3861 112.732 15.7539 112.732 16.0664ZM123.982 19.4258C123.82 19.4258 123.676 19.4128 123.553 19.3867C123.455 19.582 123.338 19.7643 123.201 19.9336C123.064 20.0964 122.905 20.2396 122.723 20.3633C122.547 20.487 122.348 20.5846 122.127 20.6562C121.906 20.7279 121.665 20.7637 121.404 20.7637C121.098 20.7637 120.818 20.7083 120.564 20.5977C120.311 20.4935 120.089 20.347 119.9 20.1582C119.712 19.9629 119.565 19.7318 119.461 19.4648C119.357 19.1914 119.305 18.8919 119.305 18.5664C119.305 18.1497 119.38 17.7884 119.529 17.4824C119.679 17.1699 119.852 16.9128 120.047 16.7109C120.242 16.5026 120.438 16.3496 120.633 16.252C120.828 16.1478 120.975 16.0957 121.072 16.0957C121.183 16.0957 121.264 16.125 121.316 16.1836C121.375 16.2422 121.404 16.3203 121.404 16.418C121.404 16.5286 121.368 16.6133 121.297 16.6719C121.232 16.724 121.147 16.776 121.043 16.8281C120.939 16.8802 120.828 16.9551 120.711 17.0527C120.594 17.1439 120.483 17.2611 120.379 17.4043C120.281 17.5475 120.2 17.7168 120.135 17.9121C120.07 18.1074 120.037 18.3255 120.037 18.5664C120.037 18.7812 120.07 18.9831 120.135 19.1719C120.2 19.3542 120.294 19.5137 120.418 19.6504C120.542 19.7806 120.688 19.8848 120.857 19.9629C121.027 20.0345 121.215 20.0703 121.424 20.0703C121.795 20.0703 122.101 19.9857 122.342 19.8164C122.589 19.6406 122.778 19.4193 122.908 19.1523C122.524 18.9505 122.208 18.6641 121.961 18.293C121.714 17.9219 121.59 17.5052 121.59 17.043C121.59 16.6719 121.678 16.3691 121.854 16.1348C122.036 15.9004 122.273 15.7832 122.566 15.7832C122.742 15.7832 122.908 15.8255 123.064 15.9102C123.221 15.9948 123.357 16.1283 123.475 16.3105C123.598 16.4928 123.696 16.7272 123.768 17.0137C123.839 17.3001 123.875 17.6419 123.875 18.0391C123.875 18.2474 123.849 18.4655 123.797 18.6934C123.836 18.6999 123.875 18.7031 123.914 18.7031C123.953 18.7031 123.995 18.7031 124.041 18.7031C124.262 18.7031 124.461 18.6771 124.637 18.625C124.812 18.5729 124.972 18.4948 125.115 18.3906C125.258 18.2865 125.385 18.153 125.496 17.9902C125.613 17.8275 125.724 17.6387 125.828 17.4238C125.848 17.3848 125.89 17.349 125.955 17.3164C126.02 17.2773 126.085 17.2578 126.15 17.2578C126.235 17.2578 126.313 17.2936 126.385 17.3652C126.463 17.4303 126.502 17.5182 126.502 17.6289C126.502 17.681 126.489 17.7396 126.463 17.8047C126.437 17.8633 126.411 17.9186 126.385 17.9707C126.274 18.166 126.144 18.3548 125.994 18.5371C125.851 18.7129 125.678 18.8691 125.477 19.0059C125.281 19.1361 125.06 19.2402 124.812 19.3184C124.565 19.3965 124.288 19.4323 123.982 19.4258ZM122.312 16.9648C122.312 17.0885 122.329 17.2188 122.361 17.3555C122.394 17.4922 122.443 17.6289 122.508 17.7656C122.579 17.8958 122.664 18.0228 122.762 18.1465C122.866 18.2637 122.986 18.3646 123.123 18.4492C123.143 18.3125 123.152 18.179 123.152 18.0488C123.152 17.873 123.139 17.694 123.113 17.5117C123.087 17.3294 123.048 17.1634 122.996 17.0137C122.951 16.8574 122.892 16.7337 122.82 16.6426C122.749 16.5449 122.664 16.4961 122.566 16.4961C122.527 16.4961 122.475 16.5254 122.41 16.584C122.345 16.6426 122.312 16.7695 122.312 16.9648ZM130.818 17.7754C130.818 18.3743 130.711 18.8854 130.496 19.3086C130.281 19.7318 130.018 20.054 129.705 20.2754H129.744C130.128 20.2754 130.477 20.1908 130.789 20.0215C131.108 19.8457 131.395 19.6243 131.648 19.3574C131.902 19.084 132.13 18.7812 132.332 18.4492C132.534 18.1172 132.713 17.7949 132.869 17.4824C132.902 17.4108 132.947 17.3555 133.006 17.3164C133.071 17.2773 133.139 17.2578 133.211 17.2578C133.322 17.2578 133.41 17.2969 133.475 17.375C133.54 17.4531 133.572 17.5378 133.572 17.6289C133.572 17.681 133.562 17.7298 133.543 17.7754C133.374 18.153 133.172 18.5339 132.938 18.918C132.703 19.2956 132.43 19.6374 132.117 19.9434C131.805 20.2493 131.453 20.4967 131.062 20.6855C130.672 20.8809 130.239 20.9785 129.764 20.9785C129.419 20.9785 129.083 20.9232 128.758 20.8125C128.432 20.7083 128.146 20.5423 127.898 20.3145C127.807 20.2428 127.729 20.168 127.664 20.0898C127.599 20.0052 127.547 19.9271 127.508 19.8555C127.495 19.8424 127.488 19.8294 127.488 19.8164C127.449 19.7578 127.43 19.696 127.43 19.6309C127.43 19.5462 127.459 19.4681 127.518 19.3965C127.524 19.3835 127.531 19.377 127.537 19.377C127.544 19.3704 127.55 19.3639 127.557 19.3574C127.622 19.2988 127.693 19.2663 127.771 19.2598H127.801C127.833 19.2598 127.856 19.263 127.869 19.2695C127.876 19.2695 127.879 19.2728 127.879 19.2793C127.885 19.2793 127.892 19.2793 127.898 19.2793C127.918 19.2793 127.941 19.2858 127.967 19.2988C127.973 19.3053 127.98 19.3086 127.986 19.3086C128.045 19.3477 128.094 19.3965 128.133 19.4551C128.178 19.5332 128.23 19.6048 128.289 19.6699C128.341 19.722 128.403 19.7708 128.475 19.8164C128.546 19.8555 128.628 19.875 128.719 19.875C128.882 19.875 129.044 19.8262 129.207 19.7285C129.37 19.6309 129.516 19.4909 129.646 19.3086C129.777 19.1263 129.881 18.9049 129.959 18.6445C130.044 18.3841 130.086 18.0944 130.086 17.7754C130.086 17.541 130.06 17.3424 130.008 17.1797C129.962 17.0104 129.9 16.8737 129.822 16.7695C129.751 16.6654 129.673 16.5905 129.588 16.5449C129.503 16.4928 129.422 16.4668 129.344 16.4668C129.168 16.4668 128.989 16.5579 128.807 16.7402C128.631 16.9225 128.455 17.1536 128.279 17.4336C128.104 17.7135 127.928 18.0228 127.752 18.3613C127.583 18.6999 127.41 19.0286 127.234 19.3477C127.221 20.4023 127.202 21.4082 127.176 22.3652C127.156 23.3223 127.117 24.2109 127.059 25.0312C127.007 25.8516 126.932 26.5938 126.834 27.2578C126.736 27.9219 126.603 28.4883 126.434 28.957C126.264 29.4323 126.056 29.7969 125.809 30.0508C125.561 30.3047 125.258 30.4316 124.9 30.4316C124.79 30.4316 124.663 30.4089 124.52 30.3633C124.376 30.3177 124.243 30.2233 124.119 30.0801C123.995 29.9434 123.891 29.7448 123.807 29.4844C123.722 29.224 123.68 28.8757 123.68 28.4395C123.68 27.8861 123.748 27.2448 123.885 26.5156C124.021 25.7865 124.217 25.0117 124.471 24.1914C124.718 23.3776 125.014 22.541 125.359 21.6816C125.704 20.8223 126.085 19.9857 126.502 19.1719C126.502 18.944 126.502 18.7194 126.502 18.498C126.508 18.2767 126.512 18.0618 126.512 17.8535C126.427 17.9512 126.326 18 126.209 18C126.098 18 126.01 17.9609 125.945 17.8828C125.88 17.8047 125.848 17.7201 125.848 17.6289C125.848 17.5833 125.857 17.5345 125.877 17.4824C126.033 17.1243 126.154 16.7858 126.238 16.4668C126.323 16.1413 126.385 15.8581 126.424 15.6172C126.469 15.3698 126.495 15.1745 126.502 15.0312C126.508 14.888 126.512 14.8132 126.512 14.8066C126.512 14.709 126.548 14.6243 126.619 14.5527C126.691 14.4811 126.779 14.4453 126.883 14.4453C126.98 14.4453 127.065 14.4811 127.137 14.5527C127.208 14.6178 127.244 14.7025 127.244 14.8066V17.8047C127.394 17.5508 127.544 17.3001 127.693 17.0527C127.843 16.8053 127.999 16.584 128.162 16.3887C128.331 16.1934 128.51 16.0371 128.699 15.9199C128.895 15.7962 129.109 15.7344 129.344 15.7344C129.565 15.7344 129.767 15.7865 129.949 15.8906C130.132 15.9948 130.288 16.138 130.418 16.3203C130.548 16.5026 130.646 16.7207 130.711 16.9746C130.783 17.222 130.818 17.4889 130.818 17.7754ZM126.482 20.9102C126.163 21.6263 125.874 22.3457 125.613 23.0684C125.359 23.791 125.145 24.4876 124.969 25.1582C124.786 25.8288 124.646 26.457 124.549 27.043C124.451 27.6289 124.402 28.1432 124.402 28.5859C124.402 28.6966 124.409 28.8171 124.422 28.9473C124.435 29.0775 124.461 29.1979 124.5 29.3086C124.539 29.4193 124.594 29.5104 124.666 29.582C124.738 29.6602 124.832 29.6992 124.949 29.6992C125.164 29.6992 125.35 29.5625 125.506 29.2891C125.662 29.0221 125.792 28.6576 125.896 28.1953C126.007 27.7396 126.098 27.2122 126.17 26.6133C126.242 26.0208 126.297 25.3991 126.336 24.748C126.382 24.097 126.414 23.4395 126.434 22.7754C126.453 22.1178 126.469 21.4961 126.482 20.9102Z" fill="#8E6447"/>
</svg>
