<?xml version="1.0" encoding="UTF-8"?>
<!DOCTYPE svg PUBLIC "-//W3C//DTD SVG 1.1//EN" "http://www.w3.org/Graphics/SVG/1.1/DTD/svg11.dtd">
<svg xmlns="http://www.w3.org/2000/svg" version="1.1" width="32px" height="32px" style="shape-rendering:geometricPrecision; text-rendering:geometricPrecision; image-rendering:optimizeQuality; fill-rule:evenodd; clip-rule:evenodd" xmlns:xlink="http://www.w3.org/1999/xlink">
<g><path style="opacity:0.958" fill="#000000" d="M 9.5,1.5 C 10.6935,1.97041 11.3601,2.97041 11.5,4.5C 11.1667,5.5 10.8333,6.5 10.5,7.5C 9.53443,5.60395 9.2011,3.60395 9.5,1.5 Z"/></g>
<g><path style="opacity:0.958" fill="#000000" d="M 13.5,1.5 C 14.6935,1.97041 15.3601,2.97041 15.5,4.5C 15.1667,5.5 14.8333,6.5 14.5,7.5C 13.5344,5.60395 13.2011,3.60395 13.5,1.5 Z"/></g>
<g><path style="opacity:0.958" fill="#000000" d="M 17.5,1.5 C 18.6935,1.97041 19.3601,2.97041 19.5,4.5C 19.1667,5.5 18.8333,6.5 18.5,7.5C 17.5344,5.60395 17.2011,3.60395 17.5,1.5 Z"/></g>
<g><path style="opacity:0.867" fill="#000000" d="M 2.5,9.5 C 11.1731,9.33358 19.8397,9.50025 28.5,10C 30.4782,12.4973 30.9782,15.3307 30,18.5C 27.1667,20 25,22.1667 23.5,25C 24.624,25.2492 25.624,25.7492 26.5,26.5C 18.5,27.8333 10.5,27.8333 2.5,26.5C 3.37598,25.7492 4.37598,25.2492 5.5,25C 4.29857,24.0975 3.46524,22.9308 3,21.5C 2.50115,17.5138 2.33449,13.5138 2.5,9.5 Z M 4.5,11.5 C 11.1667,11.5 17.8333,11.5 24.5,11.5C 24.432,24.7738 18.5987,28.4405 7,22.5C 5.09614,19.0769 4.2628,15.4102 4.5,11.5 Z M 26.5,12.5 C 28.7652,13.9402 28.9319,15.6068 27,17.5C 26.5065,15.8659 26.3398,14.1992 26.5,12.5 Z"/></g>
</svg>
