<svg width="16" height="16" viewBox="0 0 16 16" fill="none" xmlns="http://www.w3.org/2000/svg">
<path fill-rule="evenodd" clip-rule="evenodd" d="M7.12607 8.00005C7.12607 8.68205 6.57341 9.23471 5.89141 9.23471C5.20941 9.23471 4.65674 8.68205 4.65674 8.00005C4.65674 7.31805 5.20941 6.76538 5.89141 6.76538H5.89341C6.57474 6.76605 7.12607 7.31871 7.12607 8.00005Z" stroke="#4F5665" stroke-linecap="round" stroke-linejoin="round"/>
<path d="M7.12793 8.00024H11.3399V9.23491" stroke="#4F5665" stroke-linecap="round" stroke-linejoin="round"/>
<path d="M9.45492 9.23491V8.00024" stroke="#4F5665" stroke-linecap="round" stroke-linejoin="round"/>
<path fill-rule="evenodd" clip-rule="evenodd" d="M1.8335 8.00016C1.8335 3.3755 3.3755 1.8335 8.00016 1.8335C12.6248 1.8335 14.1668 3.3755 14.1668 8.00016C14.1668 12.6248 12.6248 14.1668 8.00016 14.1668C3.3755 14.1668 1.8335 12.6248 1.8335 8.00016Z" stroke="#4F5665" stroke-linecap="round" stroke-linejoin="round"/>
</svg>
