<?xml version="1.0" encoding="UTF-8"?>
<!DOCTYPE svg PUBLIC "-//W3C//DTD SVG 1.1//EN" "http://www.w3.org/Graphics/SVG/1.1/DTD/svg11.dtd">
<svg xmlns="http://www.w3.org/2000/svg" version="1.1" width="24px" height="25px" style="shape-rendering:geometricPrecision; text-rendering:geometricPrecision; image-rendering:optimizeQuality; fill-rule:evenodd; clip-rule:evenodd" xmlns:xlink="http://www.w3.org/1999/xlink">
<g><path style="opacity:0.826" fill="#ff8805" d="M -0.5,1.5 C 0.833333,1.5 2.16667,1.5 3.5,1.5C 3.33003,2.82207 3.66337,3.98873 4.5,5C 10.1569,5.49942 15.8236,5.66609 21.5,5.5C 21.3713,7.2161 21.038,8.88277 20.5,10.5C 19.8333,10.1667 19.1667,9.83333 18.5,9.5C 18.8039,8.85013 19.1373,8.18346 19.5,7.5C 14.544,6.50585 9.54396,6.17252 4.5,6.5C 4.5,7.5 4.5,8.5 4.5,9.5C 3.83333,9.5 3.5,9.83333 3.5,10.5C 2.69088,8.70779 2.19088,6.70779 2,4.5C 1.32924,3.74756 0.495904,3.41423 -0.5,3.5C -0.5,2.83333 -0.5,2.16667 -0.5,1.5 Z"/></g>
<g><path style="opacity:0.524" fill="#ff8804" d="M 4.5,9.5 C 5.23411,10.7079 5.56745,12.0413 5.5,13.5C 9.83333,13.5 14.1667,13.5 18.5,13.5C 18.5,12.1667 18.5,10.8333 18.5,9.5C 19.1667,9.83333 19.8333,10.1667 20.5,10.5C 20.7135,12.1439 20.3802,13.6439 19.5,15C 2.16667,15.6667 2.16667,16.3333 19.5,17C 21.0628,19.4763 20.3962,20.9763 17.5,21.5C 15.6711,20.5354 13.8377,19.5354 12,18.5C 9.81568,18.8852 7.98235,19.8852 6.5,21.5C 5.83333,21.3333 5.16667,21.1667 4.5,21C 4.46627,17.6349 4.13293,14.1349 3.5,10.5C 3.5,9.83333 3.83333,9.5 4.5,9.5 Z"/></g>
</svg>
